<?xml version="1.0" encoding="utf-8"?>
<!-- Generator: Adobe Illustrator 25.0.1, SVG Export Plug-In . SVG Version: 6.00 Build 0)  -->
<svg version="1.1" id="Capa_1" xmlns="http://www.w3.org/2000/svg" xmlns:xlink="http://www.w3.org/1999/xlink" x="0px" y="0px"
	 viewBox="0 0 56 56" style="enable-background:new 0 0 56 56;" xml:space="preserve">
<style type="text/css">
	.st0{fill-rule:evenodd;clip-rule:evenodd;fill:#00DD4A;}
	.st1{fill-rule:evenodd;clip-rule:evenodd;fill:#FFFFFF;}
</style>
<path class="st0" d="M28.2,44.7L28.2,44.7c-3.1,0-6.1-0.8-8.7-2.4L18.8,42l-6.5,1.7l1.7-6.3l-0.4-0.6c-1.7-2.7-2.6-5.9-2.6-9.1
	c0-9.4,7.7-17.1,17.2-17.1c4.6,0,8.9,1.8,12.1,5c3.2,3.2,5,7.5,5,12.1C45.3,37.1,37.6,44.7,28.2,44.7z"/>
<path class="st1" d="M42.8,13c-3.9-3.9-9.1-6-14.6-6C16.8,7,7.6,16.2,7.6,27.6c0,3.6,0.9,7.2,2.8,10.3L7.4,48.6l10.9-2.9
	c3,1.6,6.4,2.5,9.9,2.5h0c11.4,0,20.6-9.2,20.6-20.6C48.8,22.1,46.7,16.9,42.8,13z M28.2,44.7L28.2,44.7c-3.1,0-6.1-0.8-8.7-2.4
	L18.8,42l-6.5,1.7l1.7-6.3l-0.4-0.6c-1.7-2.7-2.6-5.9-2.6-9.1c0-9.4,7.7-17.1,17.2-17.1c4.6,0,8.9,1.8,12.1,5c3.2,3.2,5,7.5,5,12.1
	C45.3,37.1,37.6,44.7,28.2,44.7z M37.6,31.9c-0.5-0.3-3-1.5-3.5-1.7c-0.5-0.2-0.8-0.3-1.2,0.3c-0.3,0.5-1.3,1.7-1.6,2
	c-0.3,0.3-0.6,0.4-1.1,0.1c-0.5-0.3-2.2-0.8-4.1-2.6c-1.5-1.4-2.6-3.1-2.9-3.6c-0.3-0.5,0-0.8,0.2-1.1c0.2-0.2,0.5-0.6,0.8-0.9
	c0.3-0.3,0.3-0.5,0.5-0.9c0.2-0.3,0.1-0.6,0-0.9C24.5,22.5,23.5,20,23,19c-0.4-1-0.8-0.9-1.2-0.9c-0.3,0-0.6,0-1,0
	c-0.3,0-0.9,0.1-1.4,0.6c-0.5,0.5-1.8,1.8-1.8,4.3s1.8,5,2.1,5.3c0.3,0.3,3.6,5.5,8.8,7.8c1.2,0.5,2.2,0.8,2.9,1.1
	c1.2,0.4,2.4,0.3,3.2,0.2c1-0.1,3-1.2,3.5-2.5c0.4-1.2,0.4-2.2,0.3-2.4C38.5,32.3,38.1,32.2,37.6,31.9z"/>
</svg>
