<?xml version="1.0" encoding="utf-8"?>
<!-- Generator: Adobe Illustrator 25.0.1, SVG Export Plug-In . SVG Version: 6.00 Build 0)  -->
<svg version="1.1" id="Capa_1" xmlns="http://www.w3.org/2000/svg" xmlns:xlink="http://www.w3.org/1999/xlink" x="0px" y="0px"
	 viewBox="0 0 34 34" style="enable-background:new 0 0 34 34;" xml:space="preserve">
<style type="text/css">
	.st0{fill-rule:evenodd;clip-rule:evenodd;fill:#FFFFFF;}
	.st1{opacity:0.5;fill:#FFFFFF;}
</style>
<path class="st0" d="M29.2,22.7l-1.1-8.6c-0.7-3.1-2.5-4.3-4.2-4.3H9.8C8,9.8,6.1,11,5.6,14.1l-1.1,8.6c-0.9,6.3,2.4,7.9,6.6,7.9
	h11.5C26.8,30.6,30,28.3,29.2,22.7z M12.8,16.9c-0.7,0-1.2-0.6-1.2-1.3s0.5-1.3,1.2-1.3s1.2,0.6,1.2,1.3S13.5,16.9,12.8,16.9z
	 M19.6,15.6c0,0.7,0.5,1.3,1.2,1.3s1.2-0.6,1.2-1.3s-0.5-1.3-1.2-1.3C20.2,14.3,19.6,14.9,19.6,15.6z"/>
<path class="st1" d="M23.7,9.4c0,0.1,0,0.2-0.1,0.3h-2c0-0.1-0.1-0.2-0.1-0.3c0-2.7-2.2-4.8-4.8-4.8c-2.7,0-4.8,2.2-4.8,4.8
	c0,0.1,0,0.2,0,0.3h-2c0-0.1,0-0.2,0-0.3c0.2-3.7,3.2-6.6,6.9-6.6C20.6,2.8,23.6,5.7,23.7,9.4L23.7,9.4z"/>
</svg>
