<?xml version="1.0" encoding="utf-8"?>
<!-- Generator: Adobe Illustrator 25.0.1, SVG Export Plug-In . SVG Version: 6.00 Build 0)  -->
<svg version="1.1" id="Capa_1" xmlns="http://www.w3.org/2000/svg" xmlns:xlink="http://www.w3.org/1999/xlink" x="0px" y="0px"
	 viewBox="0 0 21 22" style="enable-background:new 0 0 21 22;" xml:space="preserve">
<style type="text/css">
	.st0{fill-rule:evenodd;clip-rule:evenodd;fill:#1C2030;}
</style>
<path class="st0" d="M6.7,14.4h8.4c2.3,0,4.2,1.9,4.2,4.2c0,0.5-0.4,0.8-0.8,0.8c-0.4,0-0.8-0.3-0.8-0.7l0-0.2
	c-0.1-1.3-1.1-2.3-2.4-2.4l-0.1,0H6.7c-1.4,0-2.5,1.1-2.5,2.5c0,0.5-0.4,0.8-0.8,0.8S2.5,19,2.5,18.6c0-2.3,1.8-4.1,4-4.2L6.7,14.4
	h8.4H6.7z M10.9,2.6c2.8,0,5.1,2.3,5.1,5.1c0,2.8-2.3,5.1-5.1,5.1c-2.8,0-5.1-2.3-5.1-5.1C5.8,4.8,8.1,2.6,10.9,2.6z M10.9,4.3
	C9,4.3,7.5,5.8,7.5,7.6C7.5,9.5,9,11,10.9,11c1.9,0,3.4-1.5,3.4-3.4C14.3,5.8,12.8,4.3,10.9,4.3z"/>
</svg>
